Coordinates
version=1
nRows=23
nColumns=30
inDegrees=yes

Units are S.I. units (second, meters, Newtons, ...)
Angles are in degrees.

endheader
time	floatyaw	floatroll	floatpitch	floatx	floaty	floatz	pro_sup_l	deviation_l	flexion_l	cmc_flexion_l	cmc_abduction_l	mp_flexion_l	ip_flexion_l	2mcp_flexion_l	2mcp_abduction_l	2pm_flexion_l	2md_flexion_l	3mcp_flexion_l	3mcp_abduction_l	3pm_flexion_l	3md_flexion_l	4mcp_flexion_l	4mcp_abduction_l	4pm_flexion_l	4md_flexion_l	5mcp_flexion_l	5mcp_abduction_l	5pm_flexion_l	5md_flexion_l
-0.995000	-160.147433	-5.066637	-73.570646	0.062311	-0.176075	-0.028926	106.249489	7.984484	-2.819538	15.210928	6.042293	-25.953412	-42.024953	30.405265	8.681832	44.597619	34.004552	27.042698	4.398383	47.870498	31.744735	18.048330	-4.600669	55.790570	39.012849	7.812581	-9.702351	64.766972	46.509058
-0.985000	-160.147433	-5.066637	-73.570646	0.062219	-0.175972	-0.028933	106.323452	8.043144	-2.813814	15.201164	5.950221	-25.973159	-42.104997	30.458569	8.671293	44.662812	34.000363	27.156252	4.414594	47.831817	31.853471	18.193523	-4.611379	55.705217	39.016168	7.892380	-9.679648	64.722513	46.503744
-0.975000	-160.147433	-5.066637	-73.570646	0.062146	-0.175888	-0.028914	106.349041	8.118295	-2.795722	15.149548	5.853623	-25.975928	-42.140468	30.498384	8.668584	44.734449	34.030470	27.246901	4.430370	47.813655	31.994838	18.296424	-4.624041	55.651311	39.045058	8.002638	-9.657479	64.670968	46.481015
-0.965000	-160.147433	-5.066637	-73.570646	0.062091	-0.175825	-0.028865	106.295400	8.192953	-2.746680	15.067593	5.796121	-25.973285	-42.140106	30.545337	8.673793	44.799661	34.091164	27.335457	4.441717	47.826982	32.150916	18.390325	-4.635168	55.674287	39.099061	8.176460	-9.639130	64.655106	46.448669
-0.955000	-160.147433	-5.066637	-73.570646	0.062048	-0.175778	-0.028792	106.159674	8.249083	-2.656892	14.978520	5.800339	-25.976222	-42.121073	30.609708	8.683724	44.856299	34.170341	27.435617	4.446631	47.870189	32.300908	18.508010	-4.643042	55.786213	39.172976	8.424398	-9.626456	64.693949	46.410202
-0.945000	-160.147433	-5.066637	-73.570646	0.062013	-0.175734	-0.028713	105.964364	8.273760	-2.531422	14.907001	5.866778	-25.993405	-42.104533	30.691879	8.692815	44.910689	34.251690	27.551226	4.445025	47.930365	32.424297	18.670199	-4.647216	55.968606	39.259797	8.729938	-9.619558	64.784798	46.368740
-0.935000	-160.147433	-5.066637	-73.570646	0.061979	-0.175682	-0.028644	105.746239	8.263298	-2.389976	14.869651	5.979719	-26.029338	-42.108631	30.786278	8.695317	44.971075	34.319955	27.677903	4.438159	47.989050	32.503428	18.877741	-4.647866	56.183390	39.350847	9.053462	-9.617112	64.910411	46.329953
-0.925000	-160.147433	-5.066637	-73.570646	0.061941	-0.175616	-0.028598	105.542778	8.223919	-2.260203	14.870568	6.115426	-26.082940	-42.142253	30.885831	8.687798	45.041261	34.365062	27.807355	4.428030	48.029816	32.526157	19.110904	-4.645548	56.386301	39.434660	9.344896	-9.616905	65.046966	46.301135
-0.915000	-160.147433	-5.066637	-73.570646	0.061896	-0.175538	-0.028578	105.381302	8.169243	-2.167202	14.902720	6.249332	-26.147706	-42.202912	30.984992	8.670777	45.117856	34.383997	27.931766	4.416900	48.044730	32.488735	19.337039	-4.641282	56.539498	39.497814	9.561544	-9.616363	65.171337	46.287739
-0.905000	-160.147433	-5.066637	-73.570646	0.061843	-0.175454	-0.028580	105.273535	8.115980	-2.123705	14.952658	6.360972	-26.213911	-42.279400	31.080812	8.648690	45.192141	34.381093	28.046072	4.406937	48.037367	32.398033	19.524047	-4.636501	56.621401	39.529185	9.683591	-9.613219	65.267051	46.290952
-0.895000	-160.147433	-5.066637	-73.570646	0.061783	-0.175372	-0.028593	105.215715	8.079124	-2.125395	15.005354	6.436560	-26.272077	-42.357285	31.172543	8.628229	45.255230	34.367163	28.147715	4.399878	48.021091	32.271546	19.653357	-4.632634	56.631328	39.525399	9.719319	-9.606385	65.327620	46.308379
-0.885000	-160.147433	-5.066637	-73.570646	0.061717	-0.175300	-0.028606	105.192920	8.067578	-2.153653	15.047807	6.469276	-26.316199	-42.424532	31.260632	8.615753	45.303587	34.356444	28.235230	4.396748	48.012969	32.133660	19.725590	-4.630512	56.586929	39.493112	9.697331	-9.596569	65.356095	46.336438
-0.875000	-160.147433	-5.066637	-73.570646	0.061648	-0.175240	-0.028610	105.186160	8.081403	-2.184472	15.071817	6.457653	-26.345288	-42.475097	31.345548	8.614782	45.341925	34.360891	28.307514	4.397656	48.025688	32.008221	19.756394	-4.630056	56.515166	39.445700	9.650968	-9.585997	65.361245	46.371562
-0.865000	-160.147433	-5.066637	-73.570646	0.061581	-0.175191	-0.028605	105.180388	8.112041	-2.199140	15.076173	6.403331	-26.362453	-42.509310	31.426389	8.624650	45.382127	34.384362	28.364437	4.401671	48.061266	31.910129	19.766390	-4.630461	56.441134	39.396288	9.604726	-9.577207	65.352584	46.409239
-0.855000	-160.147433	-5.066637	-73.570646	0.061522	-0.175148	-0.028597	105.170128	8.145841	-2.191368	15.067168	6.309807	-26.372117	-42.531297	31.499430	8.640959	45.438835	34.420976	28.407985	4.406902	48.110166	31.840411	19.772461	-4.630752	56.380304	39.351899	9.570190	-9.571751	65.336983	46.442790
-0.845000	-160.147433	-5.066637	-73.570646	0.061474	-0.175104	-0.028593	105.159082	8.169289	-2.167598	15.056034	6.182984	-26.377233	-42.545319	31.557731	8.657728	45.523487	34.459356	28.442470	4.410920	48.156861	31.787669	19.785120	-4.630371	56.337343	39.312367	9.551644	-9.569724	65.318170	46.464395
-0.835000	-160.147433	-5.066637	-73.570646	0.061440	-0.175053	-0.028601	105.153263	8.173363	-2.141062	15.053403	6.032954	-26.378379	-42.553417	31.593248	8.670140	45.638724	34.489892	28.473094	4.411563	48.188757	31.734842	19.810834	-4.629470	56.309929	39.274037	9.554329	-9.570317	65.297975	46.468659
-0.825000	-160.147433	-5.066637	-73.570646	0.061418	-0.174998	-0.028620	105.152155	8.155212	-2.123571	15.063112	5.875636	-26.374882	-42.555288	31.601311	8.676364	45.775220	34.509918	28.503151	4.407928	48.202657	31.667313	19.853968	-4.628777	56.292726	39.235015	9.586314	-9.572686	65.276820	46.456403
-0.815000	-160.147433	-5.066637	-73.570646	0.061404	-0.174948	-0.028648	105.144617	8.117306	-2.119835	15.078603	5.732802	-26.366237	-42.548956	31.584783	8.677444	45.912839	34.523461	28.530939	4.401184	48.204451	31.578549	19.913879	-4.629129	56.277750	39.197946	9.649781	-9.576287	65.252057	46.435645
-0.805000	-160.147433	-5.066637	-73.570646	0.061394	-0.174913	-0.028677	105.112942	8.065512	-2.126744	15.084261	5.629759	-26.351964	-42.530263	31.554497	8.675475	46.026365	34.535936	28.547695	4.394752	48.202574	31.471614	19.977844	-4.631069	56.251796	39.168148	9.726480	-9.580496	65.215242	46.418482
-0.795000	-160.147433	-5.066637	-73.570646	0.061390	-0.174902	-0.028704	105.042374	8.007383	-2.136328	15.061849	5.590676	-26.329946	-42.491491	31.524936	8.671518	46.093407	34.547306	28.537866	4.393454	48.200013	31.356960	20.015861	-4.634782	56.195361	39.148384	9.768961	-9.584067	65.151371	46.415308
-0.785000	-160.147433	-5.066637	-73.570646	0.061397	-0.174919	-0.028727	104.929534	7.950820	-2.139134	14.999909	5.632001	-26.295464	-42.422089	31.507275	8.664830	46.100906	34.548175	28.482354	4.401621	48.190033	31.247719	19.984339	-4.640273	56.087242	39.134308	9.708414	-9.585153	65.042681	46.429499
-0.775000	-160.147433	-5.066637	-73.570646	0.061419	-0.174958	-0.028748	104.784850	7.902674	-2.126144	14.902080	5.755038	-26.243118	-42.313998	31.503223	8.653914	46.048111	34.521659	28.364116	4.420779	48.158024	31.154074	19.840913	-4.647341	55.914704	39.114434	9.481139	-9.582189	64.876673	46.455105
